<svg width="24" height="24" viewBox="0 0 24 24" fill="none" xmlns="http://www.w3.org/2000/svg">
<g clip-path="url(#clip0_483_3864)">
<path opacity="0.4" d="M9.18731 9.89061H14.8123C15.201 9.89061 15.5154 9.57622 15.5154 9.18749C15.5154 8.79889 15.201 8.48436 14.8123 8.48436H9.18731C8.79872 8.48436 8.48419 8.79889 8.48419 9.18749C8.48419 9.57622 8.79872 9.89061 9.18731 9.89061ZM9.18731 12.7031H14.8123C15.201 12.7031 15.5154 12.3887 15.5154 12C15.5154 11.6114 15.201 11.2969 14.8123 11.2969H9.18731C8.79872 11.2969 8.48419 11.6114 8.48419 12C8.48419 12.3887 8.79872 12.7031 9.18731 12.7031ZM9.18731 15.5156H14.8123C15.201 15.5156 15.5154 15.2012 15.5154 14.8125C15.5154 14.4239 15.201 14.1094 14.8123 14.1094H9.18731C8.79872 14.1094 8.48419 14.4239 8.48419 14.8125C8.48419 15.2012 8.79872 15.5156 9.18731 15.5156ZM10.9836 0.117925C10.8776 0.0474876 10.7546 0.00704365 10.6276 0.000886832C10.5005 -0.00526999 10.3742 0.0230901 10.262 0.0829564C10.1497 0.143002 10.0558 0.232407 9.9904 0.341628C9.92496 0.45085 9.89041 0.57579 9.89044 0.703113V1.6648C6.07856 2.43875 3.02123 5.27155 1.91016 8.94908C2.28591 8.65227 2.73192 8.48511 3.21075 8.48511C3.84098 8.48511 4.4145 8.7636 4.80708 9.22152C5.67773 6.97686 7.55067 5.23039 9.89044 4.56538V5.67186C9.89041 5.79919 9.92496 5.92413 9.9904 6.03335C10.0558 6.14257 10.1497 6.23197 10.262 6.29202C10.3742 6.35189 10.5005 6.38025 10.6276 6.3741C10.7546 6.36794 10.8777 6.32749 10.9836 6.25705C11.1261 6.17432 15.4973 3.63608 15.2219 3.79593C15.6134 3.53502 15.6134 2.88683 15.2219 2.62593C14.7605 2.35803 10.8252 0.0260033 10.9836 0.117925ZM14.1092 18.3281C14.1092 18.2008 14.0747 18.0759 14.0092 17.9666C13.9438 17.8574 13.8499 17.768 13.7377 17.708C13.6254 17.6481 13.4991 17.6197 13.372 17.6259C13.2449 17.6321 13.1219 17.6726 13.0161 17.7431C12.8736 17.8257 8.50233 20.3639 8.77772 20.2041C8.38641 20.465 8.38641 21.1131 8.77772 21.3741C9.23911 21.6419 13.1745 23.974 13.0161 23.8821C13.122 23.9525 13.245 23.993 13.372 23.9992C13.4991 24.0053 13.6254 23.9769 13.7377 23.917C13.8499 23.857 13.9438 23.7677 14.0092 23.6585C14.0747 23.5493 14.1092 23.4244 14.1092 23.2971V22.3352C17.2683 21.6938 19.8909 19.6276 21.3342 16.849C21.1582 16.8955 20.976 16.9219 20.7889 16.9219C19.5945 16.9219 19.1422 16.1609 18.8136 15.6136C17.8361 17.4514 16.1501 18.8545 14.1092 19.4346V18.3281Z" fill="white"/>
<path d="M9.18743 9.89063H14.8124C15.2012 9.89063 15.5156 9.57624 15.5156 9.1875C15.5156 8.79891 15.2012 8.48438 14.8124 8.48438H9.18743C8.79883 8.48438 8.4843 8.79891 8.4843 9.1875C8.4843 9.57624 8.79883 9.89063 9.18743 9.89063ZM9.18743 12.7031H14.8124C15.2012 12.7031 15.5156 12.3887 15.5156 12C15.5156 11.6114 15.2012 11.2969 14.8124 11.2969H9.18743C8.79883 11.2969 8.4843 11.6114 8.4843 12C8.4843 12.3887 8.79883 12.7031 9.18743 12.7031ZM9.18743 15.5156H14.8124C15.2012 15.5156 15.5156 15.2012 15.5156 14.8125C15.5156 14.4239 15.2012 14.1094 14.8124 14.1094H9.18743C8.79883 14.1094 8.4843 14.4239 8.4843 14.8125C8.4843 15.2012 8.79883 15.5156 9.18743 15.5156ZM15.5646 5.1623C17.426 6.1357 18.8493 7.83183 19.4345 9.89063H18.3281C18.2007 9.8906 18.0758 9.92515 17.9666 9.99059C17.8573 10.056 17.7679 10.1499 17.7079 10.2622C17.648 10.3744 17.6197 10.5008 17.6258 10.6278C17.632 10.7549 17.6725 10.8779 17.7431 10.9838C17.8256 11.1263 20.3638 15.4975 20.204 15.2221C20.4649 15.6134 21.1131 15.6134 21.374 15.2221C21.6421 14.7607 23.9739 10.8254 23.882 10.9838C23.9525 10.8779 23.9929 10.7548 23.9991 10.6278C24.0053 10.5007 23.9769 10.3744 23.917 10.2622C23.857 10.1499 23.7676 10.056 23.6584 9.99059C23.5492 9.92515 23.4243 9.8906 23.297 9.89063H22.3351C21.6937 6.73135 19.6271 4.1085 16.8484 2.66531C16.8947 2.84161 16.9211 3.02381 16.9211 3.21094C16.9226 4.71535 15.7058 5.06855 15.5646 5.1623ZM0.0828954 15.1441C0.142941 15.2564 0.232345 15.3502 0.341567 15.4157C0.450789 15.4811 0.575729 15.5157 0.703052 15.5156H2.0659C2.96074 18.0428 4.80096 20.1037 7.14874 21.3276C7.10261 21.1518 7.0791 20.9708 7.0788 20.7891C7.0773 19.2911 8.28433 18.9362 8.42515 18.8428C7.00976 18.1016 5.84979 16.9391 5.11938 15.5156H5.6718C5.79912 15.5157 5.92406 15.4811 6.03329 15.4157C6.14251 15.3502 6.23191 15.2564 6.29196 15.1441C6.35184 15.0319 6.3802 14.9055 6.374 14.7784C6.36781 14.6514 6.32731 14.5284 6.2568 14.4225C6.17425 14.28 3.63602 9.90877 3.79586 10.1842C3.53496 9.79284 2.88677 9.79284 2.62586 10.1842C2.44052 10.5033 -0.033589 14.6836 0.117864 14.4225C0.0474266 14.5284 0.00698261 14.6514 0.000825797 14.7785C-0.00533102 14.9055 0.0230291 15.0319 0.0828954 15.1441Z" fill="white"/>
</g>
<defs>
<clipPath id="clip0_483_3864">
<rect width="24" height="24" fill="white"/>
</clipPath>
</defs>
</svg>
